<?xml version="1.0" encoding="UTF-8"?>
<svg width="777px" height="217px" viewBox="0 0 777 217" version="1.1" xmlns="http://www.w3.org/2000/svg" xmlns:xlink="http://www.w3.org/1999/xlink">
    <title>HillriseVentures Copy</title>
    <defs>
        <filter id="filter-1">
            <feColorMatrix in="SourceGraphic" type="matrix" values="0 0 0 0 0.000000 0 0 0 0 0.000000 0 0 0 0 0.000000 0 0 0 1.000000 0"></feColorMatrix>
        </filter>
    </defs>
    <g id="Symbols" stroke="none" stroke-width="1" fill="none" fill-rule="evenodd">
        <g filter="url(#filter-1)" id="HillriseVentures-Copy">
            <g>
                <path d="M424.440482,136.738629 L424.440482,162.973158 C424.440482,170.856451 428.670524,175.831732 436.675642,175.831732 C444.680761,175.831732 448.978483,170.856451 448.978483,162.973158 L448.978483,136.738629 L454.445576,136.738629 L454.445576,163.037831 C454.445576,173.764088 448.455838,180.613371 436.675642,180.613371 C424.963127,180.613371 418.973389,173.699415 418.973389,163.102503 L418.973389,136.738629 L424.440482,136.738629 Z M555.004003,136.027982 C561.576547,136.027982 566.720278,138.289644 570.363753,142.101946 L567.111321,146.043592 C563.855129,142.424933 559.301725,140.874293 554.549038,140.874293 C549.405308,140.874293 545.630231,143.652585 545.630231,147.723577 C545.630231,157.4162 571.341363,151.858865 571.341363,167.948815 C571.341363,174.151748 567.043641,180.613371 555.331126,180.613371 C547.844892,180.613371 542.246198,177.770407 538.666642,173.764088 L541.922834,169.628799 C544.720302,172.859423 549.405308,175.831732 555.526648,175.831732 C563.268564,175.831732 565.742668,171.696444 565.742668,168.336475 C565.742668,157.222182 540.035296,163.425491 540.035296,148.046564 C540.035296,140.93859 546.412318,136.027982 555.004003,136.027982 Z M257.623814,136.738629 L272.26803,173.958106 L286.912622,136.738629 L293.096002,136.738629 L275.652815,179.838052 L268.948669,179.838052 L251.440434,136.738629 L257.623814,136.738629 Z M327.201417,136.738629 L327.201417,141.520268 L304.160663,141.520268 L304.160663,155.412852 L326.7457,155.412852 L326.7457,160.194491 L304.160663,160.194491 L304.160663,175.056413 L327.201417,175.056413 L327.201417,179.838052 L298.758242,179.838052 L298.758242,136.738629 L327.201417,136.738629 Z M341.324867,136.738629 L366.318208,170.404119 L366.318208,136.738629 L371.720629,136.738629 L371.720629,179.838052 L366.51373,179.838052 L341.19477,145.461914 L341.19477,179.838052 L335.792725,179.838052 L335.792725,136.738629 L341.324867,136.738629 Z M411.814278,136.738629 L411.814278,141.520268 L398.014943,141.520268 L398.014943,179.838052 L392.61177,179.838052 L392.61177,141.520268 L378.880115,141.520268 L378.880115,136.738629 L411.814278,136.738629 Z M482.040487,136.738629 C489.981685,136.738629 495.711981,141.778958 495.711981,149.726548 C495.711981,157.480872 490.308808,161.745506 484.38675,162.262511 L496.099265,179.838052 L489.722242,179.838052 L478.724135,162.714844 L470.000849,162.714844 L470.000849,179.838052 L464.597676,179.838052 L464.597676,136.738629 L482.040487,136.738629 Z M532.680664,136.738629 L532.680664,141.520268 L509.639158,141.520268 L509.639158,155.412852 L532.225699,155.412852 L532.225699,160.194491 L509.639158,160.194491 L509.639158,175.056413 L532.680664,175.056413 L532.680664,179.838052 L504.235985,179.838052 L504.235985,136.738629 L532.680664,136.738629 Z M481.390001,141.520268 L470.000849,141.520268 L470.000849,157.997501 L481.390001,157.997501 C486.533731,157.997501 490.113286,154.57286 490.113286,149.726548 C490.113286,144.81594 486.533731,141.520268 481.390001,141.520268 Z M668.95192,35.549607 C682.21357,35.549607 693.738083,39.5224996 702.540329,47.0955898 L690.887975,63.1122189 C683.950707,57.2755137 674.904058,54.4208937 666.722218,54.4208937 C660.525677,54.4208937 657.799651,56.5321544 657.799651,60.1323897 C657.799651,70.3123135 704.521869,62.61439 704.521869,93.404204 C704.521869,110.043495 692.252869,121.091611 670.068651,121.091611 C653.336487,121.091611 641.687893,115.752735 633.381971,107.931858 L644.662082,91.2948233 C650.61046,97.2541057 659.78119,102.220362 671.185382,102.220362 C678.374572,102.220362 682.833976,99.7383621 682.833976,95.6406739 C682.833976,84.7151348 636.111758,93.7768236 636.111758,61.8687747 C636.111758,47.9637824 647.764112,35.549607 668.95192,35.549607 Z M273.979223,36.7901184 L273.979223,67.7051039 L308.310991,67.7051039 L308.310991,36.7901184 L329.62852,36.7901184 L329.62852,119.602261 L308.310991,119.602261 L308.310991,86.3285666 L273.979223,86.3285666 L273.979223,119.602261 L252.661318,119.602261 L252.661318,36.7901184 L273.979223,36.7901184 Z M367.549244,36.7898928 L367.549244,119.602261 L346.233971,119.602261 L346.233971,36.7898928 L367.549244,36.7898928 Z M405.098853,36.7901184 L405.098853,100.978798 L438.315018,100.978798 L438.315018,119.602261 L383.783204,119.602261 L383.783204,36.7901184 L405.098853,36.7901184 Z M471.903428,36.7901184 L471.903428,100.978798 L505.115833,100.978798 L505.115833,119.602261 L450.584019,119.602261 L450.584019,36.7901184 L471.903428,36.7901184 Z M559.147563,36.7894416 C577.492783,36.7894416 587.904325,48.9579361 587.904325,64.3541591 C587.904325,78.7547243 579.22992,86.4526478 571.420324,89.1846906 L588.276569,119.601885 L563.858889,119.601885 L549.976833,91.7915241 L539.072726,91.7915241 L539.072726,119.601885 L517.757077,119.601885 L517.757077,36.7894416 L559.147563,36.7894416 Z M622.729787,36.7898928 L622.729787,119.602261 L601.410378,119.602261 L601.410378,36.7898928 L622.729787,36.7898928 Z M776.774737,36.7901184 L776.774737,55.4135434 L737.489872,55.4135434 L737.489872,68.32551 L775.909929,68.32551 L775.909929,86.9489727 L737.489872,86.9489727 L737.489872,100.978798 L776.774737,100.978798 L776.774737,119.602261 L716.170463,119.602261 L716.170463,36.7901184 L776.774737,36.7901184 Z M555.928972,55.4150474 L539.072726,55.4150474 L539.072726,73.1680615 L555.928972,73.1680615 C561.629188,73.1680615 566.212673,70.0633991 566.212673,64.2289499 C566.212673,58.5174538 561.629188,55.4150474 555.928972,55.4150474 Z" id="Shape" fill="#FFFFFF"></path>
                <path d="M108.066468,0 C167.748405,0 216.132935,48.5759164 216.132935,108.5 C216.132935,111.13541 216.039311,113.748635 215.855069,116.337045 L128.095432,116.337045 L107.723928,135.277103 L212.816207,135.278607 C210.802707,143.243117 207.911615,150.856439 204.252347,158.008029 L108.532336,158.005397 L108.532336,176.945455 L191.919426,176.947711 C184.755428,185.783798 176.233304,193.466305 166.672658,199.674126 L108.532336,199.67375 L108.533464,217 C108.377799,217 108.222133,217 108.066468,217 C48.3818985,217 2.84217094e-14,168.423708 2.84217094e-14,108.5 C2.84217094e-14,48.5759164 48.3818985,0 108.066468,0 Z" id="Path" fill="#FFFFFF"></path>
            </g>
        </g>
    </g>
</svg>