<?xml version="1.0" encoding="utf-8"?>
<!-- Generator: Adobe Illustrator 24.1.0, SVG Export Plug-In . SVG Version: 6.00 Build 0)  -->
<svg version="1.1" id="Layer_1" xmlns="http://www.w3.org/2000/svg" xmlns:xlink="http://www.w3.org/1999/xlink" x="0px" y="0px"
	 viewBox="0 0 1600 1600" style="enable-background:new 0 0 1600 1600;" xml:space="preserve">
<style type="text/css">
	.st0{fill-rule:evenodd;clip-rule:evenodd;fill:#FFFFFF;}
	.st1{fill:#FFFFFF;}
</style>
<g id="Convergence-Logo---BW-_x28_Final_x29_">
	<path id="Combined-Shape" class="st0" d="M800,0c220.4,0,420,89.1,564.6,233.3l-212.1,212.1C1062.1,355.5,937.5,300,800,300
		c-276.1,0-500,223.9-500,500s223.9,500,500,500c137.5,0,262.1-55.5,352.5-145.4l212.1,212.1C1220,1510.9,1020.4,1600,800,1600
		C358.2,1600,0,1241.8,0,800S358.2,0,800,0z"/>
	<path id="Combined-Shape_1_" class="st1" d="M1483.9,384.7C1557.6,505.8,1600,647.9,1600,800c0,152.1-42.4,294.2-116.1,415.3
		L1068.6,800L1483.9,384.7z"/>
</g>
</svg>
