<?xml version="1.0" encoding="utf-8"?>
<!-- Generator: Adobe Illustrator 24.1.0, SVG Export Plug-In . SVG Version: 6.00 Build 0)  -->
<svg version="1.1" id="Layer_1" xmlns="http://www.w3.org/2000/svg" xmlns:xlink="http://www.w3.org/1999/xlink" x="0px" y="0px"
	 viewBox="0 0 1600 692.9" style="enable-background:new 0 0 1600 692.9;" xml:space="preserve">
<style type="text/css">
	.st0{fill:#FFFFFF;}
	.st1{fill-rule:evenodd;clip-rule:evenodd;fill:#FFFFFF;}
</style>
<g id="Convergence-Logo---BW-Full-_x28_Final_x29_">
	<path id="convergence" class="st0" d="M65,630.8c11.2,0,22.4-2.9,33.6-8.8l0,0v-36.6c-6.6,8.1-12.4,13.5-17.3,16.3
		c-5.1,2.9-10.9,4.3-17.5,4.3c-10.4,0-18.9-3.6-25.6-10.8c-6.6-7.2-9.9-16.5-9.9-27.7c0-11,3.4-20.2,10.3-27.5s15.5-11,25.9-11
		c6.6,0,12.4,1.5,17.3,4.4c5,2.9,10.6,8.2,16.9,15.9l0,0v-36.9c-10.5-5.7-21.6-8.5-33.3-8.5c-18.3,0-33.7,6.2-46.3,18.5
		C6.3,534.8,0,549.9,0,567.8c0,17.9,6.2,32.9,18.6,45C31,624.8,46.5,630.8,65,630.8z M200.7,630.8c18.1,0,33.3-6,45.7-18.1
		c12.3-12.2,18.5-27.2,18.5-45.2c0-17.8-6.1-32.9-18.4-45.1c-12.4-12.2-27.5-18.4-45.3-18.4c-17.7,0-32.8,6.1-45.1,18.2
		c-12.3,12.2-18.5,26.9-18.5,44.3c0,18.4,6,33.7,18.1,45.9C167.8,624.6,182.8,630.8,200.7,630.8z M201.2,606
		c-10.7,0-19.3-3.5-25.9-10.6c-6.4-7-9.6-16.5-9.6-28.5c0-11.2,3.3-20.3,9.8-27.4c6.5-7.1,15.1-10.6,25.6-10.6
		c10.7,0,19.3,3.5,25.9,10.6c6.5,7,9.7,16.3,9.7,28c0,11.7-3.2,21-9.7,28C220.6,602.5,211.9,606,201.2,606z M339.7,627.3v-57.9
		c0-15,1.9-25.4,5.6-31.4c3.8-6.1,10.3-9.1,19.5-9.1c8.4,0,14.2,2.3,17.4,6.9c3.3,4.5,4.9,12.7,4.9,24.5l0,0v67.1h27.7v-73.6
		c0-16.9-3.3-29.1-10-36.6c-7.8-8.8-18.6-13.2-32.5-13.2c-12.1,0-23,4.8-32.6,14.4l0,0v-11.1H312v120.1H339.7z M509.2,635.6
		l62-128.3h-31l-30.8,67.4l-30.9-67.4h-30.9L509.2,635.6z M656.9,630.8c6.2,0,12-0.7,17.3-2c5.3-1.3,10.3-3.4,14.8-6.2
		c4.6-2.8,8.9-6.5,12.9-10.8c4-4.4,7.8-9.7,11.4-15.8l0,0L690,582.8c-5.6,8.9-10.7,15-15.1,18.2c-4.5,3.3-10.2,4.9-17,4.9
		c-8.8,0-16.1-2.9-21.7-8.6c-5.6-5.8-8.8-13.7-9.6-23.5l0,0h85.5l0.1-6.5c0-19.8-5.1-35.3-15.2-46.5c-10.2-11.3-24.1-16.9-41.7-16.9
		c-17.4,0-31.4,5.8-41.9,17.4c-10.5,11.8-15.7,27.1-15.7,46.1c0,19.1,5.4,34.5,16.2,46.1C624.8,625,639.1,630.8,656.9,630.8z
		 M683.9,551.2h-55.4c0.9-3.5,2.2-6.5,3.9-9.2c1.7-2.7,3.8-5,6.2-7c2.4-1.9,5.1-3.4,8-4.4c2.9-1,6.1-1.5,9.4-1.5
		C670.8,529,680.1,536.4,683.9,551.2L683.9,551.2z M787.9,627.3v-62.3c0-22.8,7.5-34.3,22.6-34.3c5,0,10.1,1.9,15.3,5.7l0,0
		l12.6-25.4c-7.9-4.8-15.5-7.1-22.8-7.1c-5.5,0-10.2,1-14.2,3.1c-3.9,2-8.4,5.6-13.5,11l0,0v-10.7h-27.6v120.1H787.9z M929.5,692.9
		c18.9,0,33.7-6.2,44.5-18.7c5.7-6.5,9.6-14.3,11.5-23.3c0.7-3.3,1.2-7.1,1.5-11.4c0.4-4.3,0.6-9.3,0.6-15l0,0V507.3H960v13.6
		c-10-11.3-22.5-16.9-37.5-16.9c-17.2,0-31,6.5-41.4,19.5c-9.7,12.2-14.6,27.1-14.6,44.6c0,18,5.2,33,15.7,45
		c10.4,11.8,23.7,17.8,40,17.8c14.3,0,26.9-5.6,37.9-16.9l0,0v16.8c0,24.9-10.1,37.4-30.3,37.4c-10.9,0-19.3-3.7-25-11.2
		c-2.5-3.2-4.2-7.8-5.3-13.7l0,0h-27.7c1.6,15.7,7.8,28,18.4,36.9C900.4,688.6,913.5,692.9,929.5,692.9z M927.6,606
		c-10.5,0-18.8-3.8-24.8-11.5c-5.5-7-8.2-15.9-8.2-26.9c0-11.1,2.7-20.1,8.2-27.1c6-7.8,14.3-11.7,24.8-11.7
		c9.8,0,17.9,3.6,24.1,10.7c6.2,7,9.3,16.3,9.3,28c0,10.9-2.8,19.9-8.5,26.9C946.5,602.1,938.2,606,927.6,606z M1093.7,630.8
		c6.2,0,12-0.7,17.3-2c5.3-1.3,10.3-3.4,14.8-6.2c4.6-2.8,8.9-6.5,12.9-10.8c4-4.4,7.8-9.7,11.4-15.8l0,0l-23.3-13.1
		c-5.6,8.9-10.7,15-15.1,18.2c-4.5,3.3-10.2,4.9-17,4.9c-8.8,0-16.1-2.9-21.7-8.6c-5.6-5.8-8.8-13.7-9.6-23.5l0,0h85.5l0.1-6.5
		c0-19.8-5.1-35.3-15.2-46.5c-10.2-11.3-24.1-16.9-41.7-16.9c-17.4,0-31.4,5.8-41.9,17.4c-10.5,11.8-15.7,27.1-15.7,46.1
		c0,19.1,5.4,34.5,16.2,46.1C1061.6,625,1075.9,630.8,1093.7,630.8z M1120.7,551.2h-55.4c0.9-3.5,2.2-6.5,3.9-9.2
		c1.7-2.7,3.8-5,6.2-7c2.4-1.9,5.1-3.4,8-4.4c2.9-1,6.1-1.5,9.4-1.5C1107.6,529,1116.8,536.4,1120.7,551.2L1120.7,551.2z
		 M1224.8,627.3v-57.9c0-15,1.9-25.4,5.6-31.4c3.8-6.1,10.3-9.1,19.5-9.1c8.4,0,14.2,2.3,17.4,6.9c3.3,4.5,4.9,12.7,4.9,24.5l0,0
		v67.1h27.7v-73.6c0-16.9-3.3-29.1-10-36.6c-7.8-8.8-18.6-13.2-32.5-13.2c-12.1,0-23,4.8-32.6,14.4l0,0v-11.1h-27.7v120.1H1224.8z
		 M1412,630.8c11.2,0,22.4-2.9,33.6-8.8l0,0v-36.6c-6.6,8.1-12.4,13.5-17.3,16.3c-5.1,2.9-10.9,4.3-17.5,4.3
		c-10.4,0-18.9-3.6-25.6-10.8c-6.6-7.2-9.9-16.5-9.9-27.7c0-11,3.4-20.2,10.3-27.5c6.9-7.3,15.5-11,25.9-11c6.6,0,12.4,1.5,17.3,4.4
		c5,2.9,10.6,8.2,16.9,15.9l0,0v-36.9c-10.5-5.7-21.6-8.5-33.3-8.5c-18.3,0-33.7,6.2-46.3,18.5c-12.6,12.3-18.9,27.4-18.9,45.4
		c0,17.9,6.2,32.9,18.6,45C1378.1,624.8,1393.5,630.8,1412,630.8z M1543.6,630.8c6.2,0,12-0.7,17.3-2c5.3-1.3,10.3-3.4,14.8-6.2
		c4.6-2.8,8.9-6.5,12.9-10.8c4-4.4,7.8-9.7,11.4-15.8l0,0l-23.3-13.1c-5.6,8.9-10.7,15-15.1,18.2c-4.5,3.3-10.2,4.9-17,4.9
		c-8.8,0-16.1-2.9-21.7-8.6c-5.6-5.8-8.8-13.7-9.6-23.5l0,0h85.5l0.1-6.5c0-19.8-5.1-35.3-15.2-46.5c-10.2-11.3-24.1-16.9-41.7-16.9
		c-17.4,0-31.4,5.8-41.9,17.4c-10.5,11.8-15.7,27.1-15.7,46.1c0,19.1,5.4,34.5,16.2,46.1C1511.5,625,1525.8,630.8,1543.6,630.8z
		 M1570.6,551.2h-55.4c0.9-3.5,2.2-6.5,3.9-9.2s3.8-5,6.2-7c2.4-1.9,5.1-3.4,8-4.4s6.1-1.5,9.4-1.5
		C1557.5,529,1566.7,536.4,1570.6,551.2L1570.6,551.2z"/>
	<g id="Convergence-Logo---BW-_x28_Final_x29_" transform="translate(48.000000, 0.000000)">
		<path id="Combined-Shape" class="st1" d="M758.3,0c55.5,0,105.8,22.5,142.3,58.8l-53.5,53.4c-22.8-22.6-54.2-36.6-88.8-36.6
			c-69.6,0-126,56.4-126,126s56.4,126,126,126c34.7,0,66-14,88.8-36.6l53.5,53.4c-36.5,36.3-86.7,58.8-142.3,58.8
			c-111.3,0-201.6-90.2-201.6-201.6S647,0,758.3,0z"/>
		<path id="Combined-Shape_1_" class="st0" d="M930.6,96.9c18.6,30.5,29.3,66.3,29.3,104.6c0,38.3-10.7,74.1-29.2,104.6L826,201.6
			L930.6,96.9z"/>
	</g>
</g>
</svg>
