<svg id="Layer_1" data-name="Layer 1" xmlns="http://www.w3.org/2000/svg" viewBox="0 0 12482.6 1800"><defs><style>.cls-1,.cls-2,.cls-3{fill:#fff;}.cls-2,.cls-3{fill-rule:evenodd;}.cls-2{opacity:0.8;}</style></defs><path id="Convergence" class="cls-1" d="M2925,1425.4q130.24,0,245.46-50.09T3365.85,1215h0l-173.66-123.56q-58.44,75.13-126.07,109.37T2926.69,1235q-91.83,0-166.14-33.39t-127.74-91.84q-53.43-58.45-82.66-138.6t-29.22-175.33q0-88.5,29.22-165.31t82.66-134.42q53.43-57.6,127.74-90.17t166.14-32.56q61.79,0,122.73,23.38t126.07,93.51h0l163.65-120.23q-88.5-101.85-191.2-144.44T2925,183.06q-136.92,0-251.3,44.25t-197,126.07Q2394,435.21,2347.27,551.26t-46.75,258q0,138.6,46.75,252.14t129.41,194.53q82.65,81,197,125.24T2925,1425.4Zm960.14-10q90.16,0,170.32-30.06t138.6-85.16q58.44-55.1,92.67-132.74T4321,994.59q0-95.18-34.23-172.82T4194.08,689q-58.45-55.11-138.6-85.16T3885.16,573.8q-90.16,0-170.32,30.06T3576.25,689q-58.44,55.1-92.68,132.75t-34.23,172.82q0,95.17,34.23,172.83t92.68,132.74q58.44,55.11,138.59,85.16T3885.16,1415.38Zm0-180.34q-55.1,0-98.52-20t-74.3-53.43a226.27,226.27,0,0,1-46.76-76.81,264.25,264.25,0,0,1,0-180.34,226.27,226.27,0,0,1,46.76-76.81q30.88-33.39,74.3-53.43t98.52-20q55.11,0,98.52,20T4058,827.61a226.24,226.24,0,0,1,46.75,76.81,264.25,264.25,0,0,1,0,180.34,226.24,226.24,0,0,1-46.75,76.81q-30.9,33.39-74.31,53.43T3885.16,1235Zm823.22,160.3V957.85a291.06,291.06,0,0,1,10-76.81A179.35,179.35,0,0,1,4751,815.92q22.53-28.38,56.77-45.08t84.32-16.7q51.77,0,81.82,24.21a143.81,143.81,0,0,1,44.25,60.11,266.69,266.69,0,0,1,17.54,76.81q3.33,40.92,3.34,74.31h0v405.76h200.37V889.39a461.74,461.74,0,0,0-15-118.55q-15-56.77-50.1-100.19t-91-70.13q-56-26.73-136.09-26.72-100.18,0-158.63,44.25T4701.7,722.41h-3.34V593.84H4508v801.5Zm1190.57,0,315.59-801.5H6009.15l-215.4,561.05h-3.34L5576.67,593.84H5357.93l327.28,801.5Zm829.89,20a462.46,462.46,0,0,0,182-36.73q86.83-36.74,157-123.57h0l-143.6-108.54a349.62,349.62,0,0,1-89.34,77.65q-50.93,30.88-126.07,30.89-85.16,0-145.27-50.09t-70.13-140.27h611.15v-55.1q0-105.2-27.55-186.18t-76.82-136.09q-49.26-55.11-118.55-84.33T6728.84,573.8q-90.17,0-170.32,30.06T6419.93,689q-58.45,55.1-92.68,132.75T6293,994.59q0,95.17,34.23,172.83t92.68,132.74q58.44,55.11,138.59,85.16T6728.84,1415.38Zm175.33-500.94H6493.4q11.68-86.84,64.29-138.59t142.76-51.77q95.19,0,148.62,50.93t55.1,139.43Zm587.77,480.9V966.2q0-16.69,7.52-50.09t30.05-66.79q22.55-33.41,65.12-59.28t112.72-25.88a280.09,280.09,0,0,1,47.59,4.17q24.21,4.17,49.26,10.86h0V585.49q-18.37-5-35.91-8.35a191,191,0,0,0-35.9-3.34q-80.15,0-141.93,38.4t-95.18,108.54h-3.34V593.84H7291.57v801.5Zm821.55,400.76q116.88,0,202-33.4t141.1-94.34q55.94-61,82.66-148.62t26.71-196.2h0V593.84H8575.65V714.06h-3.34q-43.42-73.47-116.89-106.86t-158.63-33.4q-93.51,0-166.15,32.56t-124.4,89.34q-51.77,56.76-78.48,133.58T7901,994.59q0,85.15,28.39,160.3t81,130.25q52.59,55.09,126.07,87.66t163.64,32.56q75.14,0,146.94-29.22t115.22-87.66h3.34v58.44q0,60.11-12.53,109.37t-41.74,84.33q-29.22,35.06-78.48,55.1t-121.06,20q-85.17,0-150.29-30.06t-125.23-85.16h0l-120.23,163.64q85.17,75.15,185.35,103.53T8313.49,1796.1ZM8336.86,1225q-50.09,0-93.51-18.36t-75.14-50.1a227.45,227.45,0,0,1-49.26-73.47q-17.52-41.74-17.53-90.17,0-53.43,17.53-97.68t48.43-75.14q30.88-30.9,74.3-48.43t96.85-17.53q110.2,0,173.66,65.12t63.46,170.32q0,50.1-16.7,93.51t-47.59,74.31q-30.9,30.88-75.14,49.26T8336.86,1225Zm1052,190.36a462.46,462.46,0,0,0,182-36.73q86.83-36.74,157-123.57h0l-143.6-108.54a349.62,349.62,0,0,1-89.34,77.65q-50.93,30.88-126.07,30.89-85.15,0-145.27-50.09t-70.13-140.27h611.15v-55.1q0-105.2-27.55-186.18t-76.81-136.09q-49.26-55.11-118.56-84.33T9388.84,573.8q-90.17,0-170.32,30.06T9079.93,689q-58.46,55.1-92.68,132.75T8953,994.59q0,95.17,34.23,172.83t92.68,132.74q58.44,55.11,138.59,85.16T9388.84,1415.38Zm175.33-500.94H9153.4q11.69-86.84,64.29-138.59t142.76-51.77q95.19,0,148.62,50.93t55.1,139.43Zm587.77,480.9V957.85a290.65,290.65,0,0,1,10-76.81,179.33,179.33,0,0,1,32.56-65.12q22.54-28.38,56.78-45.08t84.32-16.7q51.76,0,81.82,24.21a143.81,143.81,0,0,1,44.25,60.11,266.68,266.68,0,0,1,17.53,76.81q3.35,40.92,3.34,74.31h0v405.76h200.38V889.39a461.3,461.3,0,0,0-15-118.55q-15-56.77-50.09-100.19t-91-70.13q-55.93-26.73-136.08-26.72-100.2,0-158.64,44.25t-86.83,104.36h-3.34V593.84H9951.57v801.5Zm1153.84,20q26.71,0,63.45-5.84a483.84,483.84,0,0,0,76.81-19.21,472,472,0,0,0,79.32-35.06,308.16,308.16,0,0,0,69.29-51.77h0l-133.58-143.6q-28.38,36.74-68.46,55.94t-86.83,19.2q-55.11,0-98.52-20t-74.31-53.43a226.24,226.24,0,0,1-46.75-76.81,264.25,264.25,0,0,1,0-180.34,226.24,226.24,0,0,1,46.75-76.81q30.9-33.39,74.31-53.43t98.52-20q40.08,0,78.48,21.71t73.47,58.44h0l138.59-138.59q-58.44-63.47-136.08-92.68t-154.46-29.22q-90.17,0-170.32,30.06T10996.86,689q-58.44,55.1-92.67,132.75T10870,994.59q0,95.17,34.23,172.83t92.67,132.74q58.45,55.11,138.6,85.16T11305.78,1415.38Zm804.84,0a462.38,462.38,0,0,0,182-36.73q86.84-36.74,157-123.57h0L12306,1146.54a349.57,349.57,0,0,1-89.33,77.65q-50.94,30.88-126.07,30.89-85.17,0-145.28-50.09t-70.13-140.27h611.15v-55.1q0-105.2-27.55-186.18T12382,687.35q-49.26-55.11-118.56-84.33t-152.79-29.22q-90.17,0-170.32,30.06T11801.71,689q-58.44,55.1-92.67,132.75t-34.23,172.82q0,95.17,34.23,172.83t92.67,132.74q58.44,55.11,138.59,85.16T12110.62,1415.38ZM12286,914.44h-410.77q11.68-86.84,64.29-138.59t142.77-51.77q95.18,0,148.61,50.93t55.1,139.43Z" transform="translate(-3.73 -1.92)"/><path id="Rectangle-Copy-7" class="cls-2" d="M543.73,1.92V1145.35q2.35,49.22,36.48,82.89t82.11,33.68h481.41v540H246.62q-103.11-3.06-170.3-66.54T3.73,1561.59V542.11Z" transform="translate(-3.73 -1.92)"/><path id="Rectangle-Copy-10" class="cls-3" d="M1263.73,1801.92V658.49q-2.36-49.22-36.48-82.89t-82.11-33.68H663.73V1.92h897.11Q1664,5,1731.14,68.45t72.59,173.8V1261.73Z" transform="translate(-3.73 -1.92)"/></svg>