<?xml version="1.0" encoding="UTF-8"?>
<svg width="490px" height="326px" viewBox="0 0 490 326" version="1.1" xmlns="http://www.w3.org/2000/svg" xmlns:xlink="http://www.w3.org/1999/xlink">
    <title>Graphic 3 (Dark)</title>
    <defs>
        <rect id="path-1" x="0" y="0" width="326" height="128" rx="8"></rect>
        <filter x="-4.6%" y="-11.7%" width="109.2%" height="123.4%" filterUnits="objectBoundingBox" id="filter-2">
            <feOffset dx="0" dy="0" in="SourceAlpha" result="shadowOffsetOuter1"></feOffset>
            <feMorphology radius="1" operator="erode" in="SourceAlpha" result="shadowInner"></feMorphology>
            <feOffset dx="0" dy="0" in="shadowInner" result="shadowInner"></feOffset>
            <feComposite in="shadowOffsetOuter1" in2="shadowInner" operator="out" result="shadowOffsetOuter1"></feComposite>
            <feGaussianBlur stdDeviation="5" in="shadowOffsetOuter1" result="shadowBlurOuter1"></feGaussianBlur>
            <feColorMatrix values="0 0 0 0 0.0980392157   0 0 0 0 0.117647059   0 0 0 0 0.254901961  0 0 0 0.1 0" type="matrix" in="shadowBlurOuter1"></feColorMatrix>
        </filter>
        <rect id="path-3" x="163" y="99" width="326" height="128" rx="8"></rect>
        <filter x="-4.6%" y="-11.7%" width="109.2%" height="123.4%" filterUnits="objectBoundingBox" id="filter-4">
            <feOffset dx="0" dy="0" in="SourceAlpha" result="shadowOffsetOuter1"></feOffset>
            <feMorphology radius="1" operator="erode" in="SourceAlpha" result="shadowInner"></feMorphology>
            <feOffset dx="0" dy="0" in="shadowInner" result="shadowInner"></feOffset>
            <feComposite in="shadowOffsetOuter1" in2="shadowInner" operator="out" result="shadowOffsetOuter1"></feComposite>
            <feGaussianBlur stdDeviation="5" in="shadowOffsetOuter1" result="shadowBlurOuter1"></feGaussianBlur>
            <feColorMatrix values="0 0 0 0 0.0980392157   0 0 0 0 0.117647059   0 0 0 0 0.254901961  0 0 0 0.1 0" type="matrix" in="shadowBlurOuter1"></feColorMatrix>
        </filter>
        <rect id="path-5" x="0" y="0" width="326" height="128" rx="8"></rect>
        <filter x="-4.6%" y="-11.7%" width="109.2%" height="123.4%" filterUnits="objectBoundingBox" id="filter-6">
            <feOffset dx="0" dy="0" in="SourceAlpha" result="shadowOffsetOuter1"></feOffset>
            <feMorphology radius="1" operator="erode" in="SourceAlpha" result="shadowInner"></feMorphology>
            <feOffset dx="0" dy="0" in="shadowInner" result="shadowInner"></feOffset>
            <feComposite in="shadowOffsetOuter1" in2="shadowInner" operator="out" result="shadowOffsetOuter1"></feComposite>
            <feGaussianBlur stdDeviation="5" in="shadowOffsetOuter1" result="shadowBlurOuter1"></feGaussianBlur>
            <feColorMatrix values="0 0 0 0 0.0980392157   0 0 0 0 0.117647059   0 0 0 0 0.254901961  0 0 0 0.1 0" type="matrix" in="shadowBlurOuter1"></feColorMatrix>
        </filter>
    </defs>
    <g id="Graphic-3-(Dark)" stroke="none" stroke-width="1" fill="none" fill-rule="evenodd">
        <g id="Group-2" transform="translate(35.000000, 16.000000)">
            <rect id="Rectangle-Copy-2" fill="#FFFFFF" x="0" y="0" width="326" height="128" rx="8"></rect>
            <g id="Rectangle">
                <use fill="black" fill-opacity="1" filter="url(#filter-2)" xlink:href="#path-1"></use>
                <rect stroke-opacity="0.0984211101" stroke="#191E41" stroke-width="1" stroke-linejoin="square" x="0.5" y="0.5" width="325" height="127" rx="8"></rect>
            </g>
            <rect id="Rectangle" fill="#4A5493" opacity="0.400000006" x="112" y="58" width="182" height="38" rx="6.82524272"></rect>
            <rect id="Rectangle-Copy" fill="#2F397B" opacity="0.200000003" x="112" y="32" width="72" height="18" rx="4"></rect>
            <circle id="Oval" fill="#4A5493" cx="64" cy="64" r="32"></circle>
            <g id="Icon/Property" transform="translate(44.000000, 44.000000)" fill="#FFFFFF">
                <path d="M18.7088413,26.4133418 C18.0792296,26.4133418 17.7030619,26.7731716 17.5803382,27.4928312 L17.5803382,27.4928312 L17.5803382,33.2600518 C17.5803382,34.4200173 17.1648636,35 16.3339145,35 L16.3339145,35 L11.8625755,35 C9.82367847,35 9.19937826,35 9.19937826,33.2600518 L9.19937826,33.2600518 L9.19937826,21.0895642 L9.19937826,21.0895642 L6.19742258,21.0895642 C5.06697253,21.0895642 4.46161484,20 5.63880709,18.8627344 C14.3521632,9.92346293 18.7088413,5.45382719 18.7088413,5.45382719 C19.0166738,5.15127573 19.3314797,5 19.6532589,5 L19.6532589,5 L20.3467411,5 L20.3467411,5 C20.6685203,5 20.9833262,5.15127573 21.2911587,5.45382719 C21.2911587,5.45382719 25.6478368,9.92346293 34.3611929,18.8627344 C35.5383852,20 34.9330275,21.0895642 33.8025774,21.0895642 L30.8006217,21.0895642 L30.8006217,21.0895642 L30.8006217,33.2600518 L30.8006217,33.2600518 C30.8006217,35 30.1763215,35 28.1374245,35 L23.6660855,35 L23.6660855,35 C22.8351364,35 22.4196618,34.4200173 22.4196618,33.2600518 L22.4196618,27.4928312 L22.4196618,27.4928312 C22.2969381,26.7731716 21.9207704,26.4133418 21.2911587,26.4133418 Z" id="Combined-Shape"></path>
            </g>
        </g>
        <g id="Group-3" transform="translate(163.000000, 99.000000)">
            <rect id="Rectangle-Copy-2" fill="#FFFFFF" x="0" y="0" width="326" height="128" rx="8"></rect>
            <rect id="Rectangle" fill="#4A5493" opacity="0.400000006" x="112" y="58" width="182" height="38" rx="6.82524272"></rect>
            <rect id="Rectangle-Copy" fill="#2F397B" opacity="0.200000003" x="112" y="32" width="72" height="18" rx="4"></rect>
            <circle id="Oval" fill="#4A5493" cx="64" cy="64" r="32"></circle>
            <g id="Icon/Rocket" transform="translate(44.000000, 44.000000)" fill="#FFFFFF">
                <path d="M28.95625,22.736472 L28.95625,18.6250136 C28.95625,9.45209696 25.0760417,3.91147196 23.453125,1.99584696 C23.278125,1.78751362 23.0208333,1.66876362 22.75,1.66667343 C22.478125,1.66563862 22.2208333,1.78334696 22.0427083,1.98959696 C20.3927083,3.90105529 16.434375,9.44376362 16.434375,18.6250136 L16.434375,22.7375136 L15.675,23.248972 C14.2114583,24.236472 13.3333333,25.8875136 13.3333333,27.6541803 L13.3333333,32.561472 C13.3333333,32.852097 13.49375,33.120847 13.75,33.2593886 C14.0072917,33.3968886 14.31875,33.3812636 14.5604167,33.2187636 L17.0270833,31.5760553 C17.7197917,31.1156386 18.5322917,30.8687636 19.3645833,30.8687636 L21.178125,30.8687636 L21.178125,33.2468886 C21.178125,33.6843886 21.5322917,34.0385553 21.96875,34.0385553 L23.4208333,34.0385553 C23.8572917,34.0385553 24.2114583,33.6843886 24.2114583,33.2468886 L24.2114583,30.8687636 L26.0239583,30.8687636 C26.85625,30.8687636 27.6697917,31.1135553 28.3635417,31.577097 L30.828125,33.2187636 C31.0697917,33.3812636 31.38125,33.3968886 31.6385417,33.2593886 C31.8947917,33.120847 32.0552083,32.852097 32.0552083,32.561472 L32.0552083,27.6541803 C32.0552083,25.889597 31.1760417,24.2385553 29.7135417,23.248972 L28.95625,22.736472 Z M22.6958333,16.2948053 C21.1895833,16.2948053 19.9666667,15.0729303 19.9666667,13.5666803 C19.9666667,12.0593886 21.1895833,10.8385553 22.6958333,10.8385553 C24.2010417,10.8385553 25.4239583,12.0593886 25.4239583,13.5666803 C25.4239583,15.0729303 24.2010417,16.2948053 22.6958333,16.2948053 Z" id="Shape" transform="translate(22.694271, 17.852611) rotate(45.000000) translate(-22.694271, -17.852611) "></path>
            </g>
        </g>
        <g id="Rectangle">
            <use fill="black" fill-opacity="1" filter="url(#filter-4)" xlink:href="#path-3"></use>
            <rect stroke-opacity="0.0984211101" stroke="#191E41" stroke-width="1" stroke-linejoin="square" x="163.5" y="99.5" width="325" height="127" rx="8"></rect>
        </g>
        <g id="Group" transform="translate(0.000000, 182.000000)">
            <rect id="Rectangle-Copy-2" fill="#FFFFFF" x="0" y="0" width="326" height="128" rx="8"></rect>
            <g id="Rectangle">
                <use fill="black" fill-opacity="1" filter="url(#filter-6)" xlink:href="#path-5"></use>
                <rect stroke-opacity="0.0984211101" stroke="#191E41" stroke-width="1" stroke-linejoin="square" x="0.5" y="0.5" width="325" height="127" rx="8"></rect>
            </g>
            <rect id="Rectangle" fill="#4A5493" opacity="0.400000006" x="112" y="58" width="182" height="38" rx="6.82524272"></rect>
            <rect id="Rectangle-Copy" fill="#2F397B" opacity="0.200000003" x="112" y="32" width="72" height="18" rx="4"></rect>
            <circle id="Oval" fill="#4A5493" cx="64" cy="64" r="32"></circle>
            <g id="Icon/Watch-2" transform="translate(44.000000, 44.000000)" fill="#FFFFFF" fill-rule="nonzero">
                <path d="M27.853776,31.4242188 L25.5997396,36.6666667 L14.7648438,36.6666667 L12.5107422,31.4242188 C13.2378255,31.9132813 14.011263,32.3319661 14.8261719,32.6766276 C16.5236979,33.3945964 18.3257161,33.7586589 20.1822917,33.7586589 C22.0388672,33.7586589 23.8408854,33.3945964 25.5384115,32.6766276 C26.3533203,32.3319661 27.1266927,31.9132813 27.853776,31.4242188 L27.853776,31.4242188 Z M20.1822917,8.19446615 C26.7022786,8.19446615 31.9878255,13.4799479 31.9878255,20 C31.9878255,26.519987 26.7022786,31.8055339 20.1822917,31.8055339 C13.6623047,31.8055339 8.37675781,26.519987 8.37675781,20 C8.37675781,13.4799479 13.6622396,8.19446615 20.1822917,8.19446615 Z M21.1588542,25.555599 L19.2057292,25.555599 L19.2057292,28.3333333 L21.1588542,28.3333333 L21.1588542,25.555599 Z M14.8827474,21.9320964 L12.4771484,23.3209635 L13.4537109,25.0123698 L15.8593099,23.6235026 L14.8827474,21.9320964 Z M25.4818359,21.9320964 L24.5052734,23.6235026 L26.9108724,25.0123698 L27.8874349,23.3209635 L25.4818359,21.9320964 Z M21.1588542,11.6666667 L19.2057292,11.6666667 L19.2057292,20 L20.6705729,20.8457031 L26.6846354,17.3734375 L25.7080729,15.6820312 L21.1588542,18.3085286 L21.1588542,11.6666667 Z M13.4537109,14.9876953 L12.4771484,16.6791016 L14.8827474,18.0679688 L15.8593099,16.3765625 L13.4537109,14.9876953 Z M25.5997396,3.33333333 L27.8538411,8.57578125 C27.1267578,8.08671875 26.3533203,7.66803385 25.5384115,7.3233724 C23.8408854,6.60540365 22.0388672,6.24134115 20.1822917,6.24134115 C18.3257161,6.24134115 16.5236979,6.60540365 14.8261719,7.3233724 C14.011263,7.66803385 13.2378255,8.08671875 12.5108073,8.57578125 L12.5108073,8.57578125 L14.7648438,3.33333333 L25.5997396,3.33333333 Z" id="Combined-Shape"></path>
            </g>
        </g>
    </g>
</svg>