<?xml version="1.0" encoding="UTF-8"?>
<svg width="490px" height="326px" viewBox="0 0 490 326" version="1.1" xmlns="http://www.w3.org/2000/svg" xmlns:xlink="http://www.w3.org/1999/xlink">
    <title>Graphic 1</title>
    <defs>
        <circle id="path-1" cx="246" cy="147" r="147"></circle>
        <filter x="-10.2%" y="-10.2%" width="120.4%" height="120.4%" filterUnits="objectBoundingBox" id="filter-2">
            <feOffset dx="0" dy="0" in="SourceAlpha" result="shadowOffsetOuter1"></feOffset>
            <feGaussianBlur stdDeviation="10" in="shadowOffsetOuter1" result="shadowBlurOuter1"></feGaussianBlur>
            <feComposite in="shadowBlurOuter1" in2="SourceAlpha" operator="out" result="shadowBlurOuter1"></feComposite>
            <feColorMatrix values="0 0 0 0 0.721568627   0 0 0 0 0.243137255   0 0 0 0 0.631372549  0 0 0 0.1 0" type="matrix" in="shadowBlurOuter1"></feColorMatrix>
        </filter>
    </defs>
    <g id="Graphic-1" stroke="none" stroke-width="1" fill="none" fill-rule="evenodd">
        <g id="Oval-Copy-2">
            <use fill="black" fill-opacity="1" filter="url(#filter-2)" xlink:href="#path-1"></use>
            <circle stroke="#B83EA1" stroke-width="1" stroke-linejoin="square" fill-opacity="0.044798951" fill="#B83EA1" fill-rule="evenodd" cx="246" cy="147" r="146.5"></circle>
        </g>
        <circle id="Oval-Copy-5" fill="#B83EA1" opacity="0.100000001" transform="translate(245.000000, 146.000000) scale(1, -1) translate(-245.000000, -146.000000) " cx="245" cy="146" r="12"></circle>
        <circle id="Oval-Copy-4" fill="#B83EA1" transform="translate(245.000000, 146.000000) scale(1, -1) translate(-245.000000, -146.000000) " cx="245" cy="146" r="8"></circle>
        <path d="M208.848,175.096 C209.36,175.096 209.794667,175.018667 210.152,174.864 C210.509333,174.709333 210.777333,174.5 210.956,174.236 C211.134667,173.972 211.224,173.68 211.224,173.36 C211.224,172.986667 211.126667,172.690667 210.932,172.472 C210.737333,172.253333 210.504,172.093333 210.232,171.992 C209.96,171.890667 209.610667,171.789333 209.184,171.688 C208.773333,171.597333 208.468,171.505333 208.268,171.412 C208.068,171.318667 207.968,171.176 207.968,170.984 C207.968,170.792 208.054667,170.637333 208.228,170.52 C208.401333,170.402667 208.669333,170.344 209.032,170.344 C209.549333,170.344 210.066667,170.490667 210.584,170.784 L210.584,170.784 L210.984,169.8 C210.728,169.64 210.429333,169.517333 210.088,169.432 C209.746667,169.346667 209.397333,169.304 209.04,169.304 C208.528,169.304 208.094667,169.381333 207.74,169.536 C207.385333,169.690667 207.12,169.9 206.944,170.164 C206.768,170.428 206.68,170.722667 206.68,171.048 C206.68,171.421333 206.777333,171.72 206.972,171.944 C207.166667,172.168 207.4,172.330667 207.672,172.432 C207.944,172.533333 208.293333,172.634667 208.72,172.736 C208.997333,172.8 209.217333,172.858667 209.38,172.912 C209.542667,172.965333 209.676,173.036 209.78,173.124 C209.884,173.212 209.936,173.322667 209.936,173.456 C209.936,173.637333 209.848,173.782667 209.672,173.892 C209.496,174.001333 209.224,174.056 208.856,174.056 C208.525333,174.056 208.194667,174.002667 207.864,173.896 C207.533333,173.789333 207.248,173.648 207.008,173.472 L207.008,173.472 L206.568,174.448 C206.818667,174.64 207.150667,174.796 207.564,174.916 C207.977333,175.036 208.405333,175.096 208.848,175.096 Z M216.448,175 L216.448,173.96 L213.4,173.96 L213.4,172.664 L216,172.664 L216,171.656 L213.4,171.656 L213.4,170.44 L216.344,170.44 L216.344,169.4 L212.112,169.4 L212.112,175 L216.448,175 Z M220.16,175.096 C220.645333,175.096 221.085333,175.010667 221.48,174.84 C221.874667,174.669333 222.205333,174.421333 222.472,174.096 L222.472,174.096 L221.64,173.328 C221.261333,173.770667 220.792,173.992 220.232,173.992 C219.885333,173.992 219.576,173.916 219.304,173.764 C219.032,173.612 218.82,173.4 218.668,173.128 C218.516,172.856 218.44,172.546667 218.44,172.2 C218.44,171.853333 218.516,171.544 218.668,171.272 C218.82,171 219.032,170.788 219.304,170.636 C219.576,170.484 219.885333,170.408 220.232,170.408 C220.792,170.408 221.261333,170.626667 221.64,171.064 L221.64,171.064 L222.472,170.296 C222.205333,169.976 221.876,169.730667 221.484,169.56 C221.092,169.389333 220.653333,169.304 220.168,169.304 C219.592,169.304 219.073333,169.428 218.612,169.676 C218.150667,169.924 217.788,170.268 217.524,170.708 C217.26,171.148 217.128,171.645333 217.128,172.2 C217.128,172.754667 217.26,173.252 217.524,173.692 C217.788,174.132 218.150667,174.476 218.612,174.724 C219.073333,174.972 219.589333,175.096 220.16,175.096 Z M225.832,175.096 C226.632,175.096 227.254667,174.874667 227.7,174.432 C228.145333,173.989333 228.368,173.357333 228.368,172.536 L228.368,172.536 L228.368,169.4 L227.088,169.4 L227.088,172.488 C227.088,173.005333 226.981333,173.385333 226.768,173.628 C226.554667,173.870667 226.245333,173.992 225.84,173.992 C225.008,173.992 224.592,173.490667 224.592,172.488 L224.592,172.488 L224.592,169.4 L223.296,169.4 L223.296,172.536 C223.296,173.357333 223.518667,173.989333 223.964,174.432 C224.409333,174.874667 225.032,175.096 225.832,175.096 Z M230.944,175 L230.944,173.44 L232.136,173.44 L233.216,175 L234.608,175 L233.352,173.2 C233.72,173.04 234.004,172.809333 234.204,172.508 C234.404,172.206667 234.504,171.848 234.504,171.432 C234.504,171.016 234.405333,170.656 234.208,170.352 C234.010667,170.048 233.729333,169.813333 233.364,169.648 C232.998667,169.482667 232.568,169.4 232.072,169.4 L232.072,169.4 L229.648,169.4 L229.648,175 L230.944,175 Z M232,172.408 L230.944,172.408 L230.944,170.456 L232,170.456 C232.389333,170.456 232.685333,170.54 232.888,170.708 C233.090667,170.876 233.192,171.117333 233.192,171.432 C233.192,171.741333 233.090667,171.981333 232.888,172.152 C232.685333,172.322667 232.389333,172.408 232,172.408 L232,172.408 Z M236.824,175 L236.824,169.4 L235.528,169.4 L235.528,175 L236.824,175 Z M240.608,175 L240.608,170.456 L242.4,170.456 L242.4,169.4 L237.52,169.4 L237.52,170.456 L239.312,170.456 L239.312,175 L240.608,175 Z M245.784,175 L245.784,173.016 L247.96,169.4 L246.688,169.4 L245.192,171.888 L243.696,169.4 L242.32,169.4 L244.488,173 L244.488,175 L245.784,175 Z M253.224,175 L253.224,170.456 L255.016,170.456 L255.016,169.4 L250.136,169.4 L250.136,170.456 L251.928,170.456 L251.928,175 L253.224,175 Z M258.424,175.096 C259.005333,175.096 259.528,174.970667 259.992,174.72 C260.456,174.469333 260.821333,174.124 261.088,173.684 C261.354667,173.244 261.488,172.749333 261.488,172.2 C261.488,171.650667 261.354667,171.156 261.088,170.716 C260.821333,170.276 260.456,169.930667 259.992,169.68 C259.528,169.429333 259.005333,169.304 258.424,169.304 C257.842667,169.304 257.318667,169.429333 256.852,169.68 C256.385333,169.930667 256.02,170.276 255.756,170.716 C255.492,171.156 255.36,171.650667 255.36,172.2 C255.36,172.749333 255.492,173.244 255.756,173.684 C256.02,174.124 256.385333,174.469333 256.852,174.72 C257.318667,174.970667 257.842667,175.096 258.424,175.096 Z M258.424,173.992 C258.093333,173.992 257.794667,173.916 257.528,173.764 C257.261333,173.612 257.052,173.4 256.9,173.128 C256.748,172.856 256.672,172.546667 256.672,172.2 C256.672,171.853333 256.748,171.544 256.9,171.272 C257.052,171 257.261333,170.788 257.528,170.636 C257.794667,170.484 258.093333,170.408 258.424,170.408 C258.754667,170.408 259.053333,170.484 259.32,170.636 C259.586667,170.788 259.796,171 259.948,171.272 C260.1,171.544 260.176,171.853333 260.176,172.2 C260.176,172.546667 260.1,172.856 259.948,173.128 C259.796,173.4 259.586667,173.612 259.32,173.764 C259.053333,173.916 258.754667,173.992 258.424,173.992 Z M263.752,175 L263.752,173.584 L264.504,172.8 L266.296,175 L267.808,175 L265.352,171.896 L267.672,169.4 L266.232,169.4 L263.752,172.016 L263.752,169.4 L262.464,169.4 L262.464,175 L263.752,175 Z M272.72,175 L272.72,173.96 L269.672,173.96 L269.672,172.664 L272.272,172.664 L272.272,171.656 L269.672,171.656 L269.672,170.44 L272.616,170.44 L272.616,169.4 L268.384,169.4 L268.384,175 L272.72,175 Z M275.032,175 L275.032,171.6 L277.824,175 L278.888,175 L278.888,169.4 L277.608,169.4 L277.608,172.8 L274.824,169.4 L273.752,169.4 L273.752,175 L275.032,175 Z M282.056,175.096 C282.568,175.096 283.002667,175.018667 283.36,174.864 C283.717333,174.709333 283.985333,174.5 284.164,174.236 C284.342667,173.972 284.432,173.68 284.432,173.36 C284.432,172.986667 284.334667,172.690667 284.14,172.472 C283.945333,172.253333 283.712,172.093333 283.44,171.992 C283.168,171.890667 282.818667,171.789333 282.392,171.688 C281.981333,171.597333 281.676,171.505333 281.476,171.412 C281.276,171.318667 281.176,171.176 281.176,170.984 C281.176,170.792 281.262667,170.637333 281.436,170.52 C281.609333,170.402667 281.877333,170.344 282.24,170.344 C282.757333,170.344 283.274667,170.490667 283.792,170.784 L283.792,170.784 L284.192,169.8 C283.936,169.64 283.637333,169.517333 283.296,169.432 C282.954667,169.346667 282.605333,169.304 282.248,169.304 C281.736,169.304 281.302667,169.381333 280.948,169.536 C280.593333,169.690667 280.328,169.9 280.152,170.164 C279.976,170.428 279.888,170.722667 279.888,171.048 C279.888,171.421333 279.985333,171.72 280.18,171.944 C280.374667,172.168 280.608,172.330667 280.88,172.432 C281.152,172.533333 281.501333,172.634667 281.928,172.736 C282.205333,172.8 282.425333,172.858667 282.588,172.912 C282.750667,172.965333 282.884,173.036 282.988,173.124 C283.092,173.212 283.144,173.322667 283.144,173.456 C283.144,173.637333 283.056,173.782667 282.88,173.892 C282.704,174.001333 282.432,174.056 282.064,174.056 C281.733333,174.056 281.402667,174.002667 281.072,173.896 C280.741333,173.789333 280.456,173.648 280.216,173.472 L280.216,173.472 L279.776,174.448 C280.026667,174.64 280.358667,174.796 280.772,174.916 C281.185333,175.036 281.613333,175.096 282.056,175.096 Z" id="SECURITYTOKENS" fill="#B83EA1" fill-rule="nonzero"></path>
        <path d="M230.692,187 L233.116,181.4 L231.828,181.4 L230.1,185.4 L228.396,181.4 L226.996,181.4 L229.412,187 L230.692,187 Z M236.412,187.096 C236.993333,187.096 237.516,186.970667 237.98,186.72 C238.444,186.469333 238.809333,186.124 239.076,185.684 C239.342667,185.244 239.476,184.749333 239.476,184.2 C239.476,183.650667 239.342667,183.156 239.076,182.716 C238.809333,182.276 238.444,181.930667 237.98,181.68 C237.516,181.429333 236.993333,181.304 236.412,181.304 C235.830667,181.304 235.306667,181.429333 234.84,181.68 C234.373333,181.930667 234.008,182.276 233.744,182.716 C233.48,183.156 233.348,183.650667 233.348,184.2 C233.348,184.749333 233.48,185.244 233.744,185.684 C234.008,186.124 234.373333,186.469333 234.84,186.72 C235.306667,186.970667 235.830667,187.096 236.412,187.096 Z M236.412,185.992 C236.081333,185.992 235.782667,185.916 235.516,185.764 C235.249333,185.612 235.04,185.4 234.888,185.128 C234.736,184.856 234.66,184.546667 234.66,184.2 C234.66,183.853333 234.736,183.544 234.888,183.272 C235.04,183 235.249333,182.788 235.516,182.636 C235.782667,182.484 236.081333,182.408 236.412,182.408 C236.742667,182.408 237.041333,182.484 237.308,182.636 C237.574667,182.788 237.784,183 237.936,183.272 C238.088,183.544 238.164,183.853333 238.164,184.2 C238.164,184.546667 238.088,184.856 237.936,185.128 C237.784,185.4 237.574667,185.612 237.308,185.764 C237.041333,185.916 236.742667,185.992 236.412,185.992 Z M244.556,187 L244.556,185.944 L241.748,185.944 L241.748,181.4 L240.452,181.4 L240.452,187 L244.556,187 Z M247.772,187.096 C248.572,187.096 249.194667,186.874667 249.64,186.432 C250.085333,185.989333 250.308,185.357333 250.308,184.536 L250.308,184.536 L250.308,181.4 L249.028,181.4 L249.028,184.488 C249.028,185.005333 248.921333,185.385333 248.708,185.628 C248.494667,185.870667 248.185333,185.992 247.78,185.992 C246.948,185.992 246.532,185.490667 246.532,184.488 L246.532,184.488 L246.532,181.4 L245.236,181.4 L245.236,184.536 C245.236,185.357333 245.458667,185.989333 245.904,186.432 C246.349333,186.874667 246.972,187.096 247.772,187.096 Z M252.804,187 L252.804,183.712 L254.444,186.408 L255.028,186.408 L256.676,183.64 L256.684,187 L257.9,187 L257.884,181.4 L256.82,181.4 L254.756,184.88 L252.66,181.4 L251.588,181.4 L251.588,187 L252.804,187 Z M263.564,187 L263.564,185.96 L260.516,185.96 L260.516,184.664 L263.116,184.664 L263.116,183.656 L260.516,183.656 L260.516,182.44 L263.46,182.44 L263.46,181.4 L259.228,181.4 L259.228,187 L263.564,187 Z" id="VOLUME" fill="#B83EA1" fill-rule="nonzero" opacity="0.300000012"></path>
        <path d="M202.268,311 L202.268,306.456 L204.06,306.456 L204.06,305.4 L199.18,305.4 L199.18,306.456 L200.972,306.456 L200.972,311 L202.268,311 Z M207.468,311.096 C208.049333,311.096 208.572,310.970667 209.036,310.72 C209.5,310.469333 209.865333,310.124 210.132,309.684 C210.398667,309.244 210.532,308.749333 210.532,308.2 C210.532,307.650667 210.398667,307.156 210.132,306.716 C209.865333,306.276 209.5,305.930667 209.036,305.68 C208.572,305.429333 208.049333,305.304 207.468,305.304 C206.886667,305.304 206.362667,305.429333 205.896,305.68 C205.429333,305.930667 205.064,306.276 204.8,306.716 C204.536,307.156 204.404,307.650667 204.404,308.2 C204.404,308.749333 204.536,309.244 204.8,309.684 C205.064,310.124 205.429333,310.469333 205.896,310.72 C206.362667,310.970667 206.886667,311.096 207.468,311.096 Z M207.468,309.992 C207.137333,309.992 206.838667,309.916 206.572,309.764 C206.305333,309.612 206.096,309.4 205.944,309.128 C205.792,308.856 205.716,308.546667 205.716,308.2 C205.716,307.853333 205.792,307.544 205.944,307.272 C206.096,307 206.305333,306.788 206.572,306.636 C206.838667,306.484 207.137333,306.408 207.468,306.408 C207.798667,306.408 208.097333,306.484 208.364,306.636 C208.630667,306.788 208.84,307 208.992,307.272 C209.144,307.544 209.22,307.853333 209.22,308.2 C209.22,308.546667 209.144,308.856 208.992,309.128 C208.84,309.4 208.630667,309.612 208.364,309.764 C208.097333,309.916 207.798667,309.992 207.468,309.992 Z M213.964,311 L213.964,306.456 L215.756,306.456 L215.756,305.4 L210.876,305.4 L210.876,306.456 L212.668,306.456 L212.668,311 L213.964,311 Z M217.044,311 L217.54,309.8 L220.14,309.8 L220.636,311 L221.996,311 L219.492,305.4 L218.212,305.4 L215.716,311 L217.044,311 Z M219.732,308.816 L217.956,308.816 L218.844,306.672 L219.732,308.816 Z M226.684,311 L226.684,309.944 L223.876,309.944 L223.876,305.4 L222.58,305.4 L222.58,311 L226.684,311 Z M232.22,311 C232.828,311 233.365333,310.884 233.832,310.652 C234.298667,310.42 234.661333,310.093333 234.92,309.672 C235.178667,309.250667 235.308,308.76 235.308,308.2 C235.308,307.64 235.178667,307.149333 234.92,306.728 C234.661333,306.306667 234.298667,305.98 233.832,305.748 C233.365333,305.516 232.828,305.4 232.22,305.4 L232.22,305.4 L229.676,305.4 L229.676,311 L232.22,311 Z M232.156,309.936 L230.972,309.936 L230.972,306.464 L232.156,306.464 C232.716,306.464 233.162667,306.62 233.496,306.932 C233.829333,307.244 233.996,307.666667 233.996,308.2 C233.996,308.733333 233.829333,309.156 233.496,309.468 C233.162667,309.78 232.716,309.936 232.156,309.936 L232.156,309.936 Z M237.58,311 L237.58,305.4 L236.284,305.4 L236.284,311 L237.58,311 Z M241.612,311.096 C242.017333,311.096 242.42,311.034667 242.82,310.912 C243.22,310.789333 243.572,310.613333 243.876,310.384 L243.876,310.384 L243.876,308.112 L242.692,308.112 L242.692,309.752 C242.393333,309.912 242.057333,309.992 241.684,309.992 C241.332,309.992 241.018667,309.916 240.744,309.764 C240.469333,309.612 240.254667,309.4 240.1,309.128 C239.945333,308.856 239.868,308.546667 239.868,308.2 C239.868,307.848 239.945333,307.536 240.1,307.264 C240.254667,306.992 240.470667,306.781333 240.748,306.632 C241.025333,306.482667 241.342667,306.408 241.7,306.408 C242.265333,306.408 242.748,306.618667 243.148,307.04 L243.148,307.04 L243.98,306.272 C243.708,305.957333 243.372,305.717333 242.972,305.552 C242.572,305.386667 242.126667,305.304 241.636,305.304 C241.049333,305.304 240.521333,305.428 240.052,305.676 C239.582667,305.924 239.216,306.268 238.952,306.708 C238.688,307.148 238.556,307.645333 238.556,308.2 C238.556,308.754667 238.688,309.252 238.952,309.692 C239.216,310.132 239.58,310.476 240.044,310.724 C240.508,310.972 241.030667,311.096 241.612,311.096 Z M246.372,311 L246.372,305.4 L245.076,305.4 L245.076,311 L246.372,311 Z M250.156,311 L250.156,306.456 L251.948,306.456 L251.948,305.4 L247.068,305.4 L247.068,306.456 L248.86,306.456 L248.86,311 L250.156,311 Z M253.236,311 L253.732,309.8 L256.332,309.8 L256.828,311 L258.188,311 L255.684,305.4 L254.404,305.4 L251.908,311 L253.236,311 Z M255.924,308.816 L254.148,308.816 L255.036,306.672 L255.924,308.816 Z M262.876,311 L262.876,309.944 L260.068,309.944 L260.068,305.4 L258.772,305.4 L258.772,311 L262.876,311 Z M266.46,311 L266.956,309.8 L269.556,309.8 L270.052,311 L271.412,311 L268.908,305.4 L267.628,305.4 L265.132,311 L266.46,311 Z M269.148,308.816 L267.372,308.816 L268.26,306.672 L269.148,308.816 Z M273.836,311.096 C274.348,311.096 274.782667,311.018667 275.14,310.864 C275.497333,310.709333 275.765333,310.5 275.944,310.236 C276.122667,309.972 276.212,309.68 276.212,309.36 C276.212,308.986667 276.114667,308.690667 275.92,308.472 C275.725333,308.253333 275.492,308.093333 275.22,307.992 C274.948,307.890667 274.598667,307.789333 274.172,307.688 C273.761333,307.597333 273.456,307.505333 273.256,307.412 C273.056,307.318667 272.956,307.176 272.956,306.984 C272.956,306.792 273.042667,306.637333 273.216,306.52 C273.389333,306.402667 273.657333,306.344 274.02,306.344 C274.537333,306.344 275.054667,306.490667 275.572,306.784 L275.572,306.784 L275.972,305.8 C275.716,305.64 275.417333,305.517333 275.076,305.432 C274.734667,305.346667 274.385333,305.304 274.028,305.304 C273.516,305.304 273.082667,305.381333 272.728,305.536 C272.373333,305.690667 272.108,305.9 271.932,306.164 C271.756,306.428 271.668,306.722667 271.668,307.048 C271.668,307.421333 271.765333,307.72 271.96,307.944 C272.154667,308.168 272.388,308.330667 272.66,308.432 C272.932,308.533333 273.281333,308.634667 273.708,308.736 C273.985333,308.8 274.205333,308.858667 274.368,308.912 C274.530667,308.965333 274.664,309.036 274.768,309.124 C274.872,309.212 274.924,309.322667 274.924,309.456 C274.924,309.637333 274.836,309.782667 274.66,309.892 C274.484,310.001333 274.212,310.056 273.844,310.056 C273.513333,310.056 273.182667,310.002667 272.852,309.896 C272.521333,309.789333 272.236,309.648 271.996,309.472 L271.996,309.472 L271.556,310.448 C271.806667,310.64 272.138667,310.796 272.552,310.916 C272.965333,311.036 273.393333,311.096 273.836,311.096 Z M278.94,311.096 C279.452,311.096 279.886667,311.018667 280.244,310.864 C280.601333,310.709333 280.869333,310.5 281.048,310.236 C281.226667,309.972 281.316,309.68 281.316,309.36 C281.316,308.986667 281.218667,308.690667 281.024,308.472 C280.829333,308.253333 280.596,308.093333 280.324,307.992 C280.052,307.890667 279.702667,307.789333 279.276,307.688 C278.865333,307.597333 278.56,307.505333 278.36,307.412 C278.16,307.318667 278.06,307.176 278.06,306.984 C278.06,306.792 278.146667,306.637333 278.32,306.52 C278.493333,306.402667 278.761333,306.344 279.124,306.344 C279.641333,306.344 280.158667,306.490667 280.676,306.784 L280.676,306.784 L281.076,305.8 C280.82,305.64 280.521333,305.517333 280.18,305.432 C279.838667,305.346667 279.489333,305.304 279.132,305.304 C278.62,305.304 278.186667,305.381333 277.832,305.536 C277.477333,305.690667 277.212,305.9 277.036,306.164 C276.86,306.428 276.772,306.722667 276.772,307.048 C276.772,307.421333 276.869333,307.72 277.064,307.944 C277.258667,308.168 277.492,308.330667 277.764,308.432 C278.036,308.533333 278.385333,308.634667 278.812,308.736 C279.089333,308.8 279.309333,308.858667 279.472,308.912 C279.634667,308.965333 279.768,309.036 279.872,309.124 C279.976,309.212 280.028,309.322667 280.028,309.456 C280.028,309.637333 279.94,309.782667 279.764,309.892 C279.588,310.001333 279.316,310.056 278.948,310.056 C278.617333,310.056 278.286667,310.002667 277.956,309.896 C277.625333,309.789333 277.34,309.648 277.1,309.472 L277.1,309.472 L276.66,310.448 C276.910667,310.64 277.242667,310.796 277.656,310.916 C278.069333,311.036 278.497333,311.096 278.94,311.096 Z M286.54,311 L286.54,309.96 L283.492,309.96 L283.492,308.664 L286.092,308.664 L286.092,307.656 L283.492,307.656 L283.492,306.44 L286.436,306.44 L286.436,305.4 L282.204,305.4 L282.204,311 L286.54,311 Z M290.028,311 L290.028,306.456 L291.82,306.456 L291.82,305.4 L286.94,305.4 L286.94,306.456 L288.732,306.456 L288.732,311 L290.028,311 Z" id="TOTALDIGITALASSET" fill="#B83EA1" fill-rule="nonzero"></path>
        <path d="M230.692,323 L233.116,317.4 L231.828,317.4 L230.1,321.4 L228.396,317.4 L226.996,317.4 L229.412,323 L230.692,323 Z M236.412,323.096 C236.993333,323.096 237.516,322.970667 237.98,322.72 C238.444,322.469333 238.809333,322.124 239.076,321.684 C239.342667,321.244 239.476,320.749333 239.476,320.2 C239.476,319.650667 239.342667,319.156 239.076,318.716 C238.809333,318.276 238.444,317.930667 237.98,317.68 C237.516,317.429333 236.993333,317.304 236.412,317.304 C235.830667,317.304 235.306667,317.429333 234.84,317.68 C234.373333,317.930667 234.008,318.276 233.744,318.716 C233.48,319.156 233.348,319.650667 233.348,320.2 C233.348,320.749333 233.48,321.244 233.744,321.684 C234.008,322.124 234.373333,322.469333 234.84,322.72 C235.306667,322.970667 235.830667,323.096 236.412,323.096 Z M236.412,321.992 C236.081333,321.992 235.782667,321.916 235.516,321.764 C235.249333,321.612 235.04,321.4 234.888,321.128 C234.736,320.856 234.66,320.546667 234.66,320.2 C234.66,319.853333 234.736,319.544 234.888,319.272 C235.04,319 235.249333,318.788 235.516,318.636 C235.782667,318.484 236.081333,318.408 236.412,318.408 C236.742667,318.408 237.041333,318.484 237.308,318.636 C237.574667,318.788 237.784,319 237.936,319.272 C238.088,319.544 238.164,319.853333 238.164,320.2 C238.164,320.546667 238.088,320.856 237.936,321.128 C237.784,321.4 237.574667,321.612 237.308,321.764 C237.041333,321.916 236.742667,321.992 236.412,321.992 Z M244.556,323 L244.556,321.944 L241.748,321.944 L241.748,317.4 L240.452,317.4 L240.452,323 L244.556,323 Z M247.772,323.096 C248.572,323.096 249.194667,322.874667 249.64,322.432 C250.085333,321.989333 250.308,321.357333 250.308,320.536 L250.308,320.536 L250.308,317.4 L249.028,317.4 L249.028,320.488 C249.028,321.005333 248.921333,321.385333 248.708,321.628 C248.494667,321.870667 248.185333,321.992 247.78,321.992 C246.948,321.992 246.532,321.490667 246.532,320.488 L246.532,320.488 L246.532,317.4 L245.236,317.4 L245.236,320.536 C245.236,321.357333 245.458667,321.989333 245.904,322.432 C246.349333,322.874667 246.972,323.096 247.772,323.096 Z M252.804,323 L252.804,319.712 L254.444,322.408 L255.028,322.408 L256.676,319.64 L256.684,323 L257.9,323 L257.884,317.4 L256.82,317.4 L254.756,320.88 L252.66,317.4 L251.588,317.4 L251.588,323 L252.804,323 Z M263.564,323 L263.564,321.96 L260.516,321.96 L260.516,320.664 L263.116,320.664 L263.116,319.656 L260.516,319.656 L260.516,318.44 L263.46,318.44 L263.46,317.4 L259.228,317.4 L259.228,323 L263.564,323 Z" id="VOLUME" fill="#B83EA1" fill-rule="nonzero" opacity="0.300000012"></path>
    </g>
</svg>