<?xml version="1.0" encoding="UTF-8"?>
<svg width="64px" height="64px" viewBox="0 0 64 64" version="1.1" xmlns="http://www.w3.org/2000/svg" xmlns:xlink="http://www.w3.org/1999/xlink">
    <title>Swap icon</title>
    <defs>
        <filter id="filter-1">
            <feColorMatrix in="SourceGraphic" type="matrix" values="0 0 0 0 0.721569 0 0 0 0 0.243137 0 0 0 0 0.631373 0 0 0 1.000000 0"></feColorMatrix>
        </filter>
    </defs>
    <g id="Page-1" stroke="none" stroke-width="1" fill="none" fill-rule="evenodd">
        <g id="Swap-icon" fill="#B83EA1">
            <circle id="Oval-Copy-3" fill-opacity="0.044798951" cx="32" cy="32" r="32"></circle>
            <g filter="url(#filter-1)" id="Icon/Swap">
                <g transform="translate(16.000000, 16.000000)">
                    <path d="M11.3333333,3.33333333 C14.1895939,3.33333333 16.5214385,5.57862463 16.6601396,8.40047954 L16.6666667,8.66666667 L16.6666667,23.3333333 C16.6666667,25.5424723 18.4575277,27.3333333 20.6666667,27.3333333 C22.7969078,27.3333333 24.5382145,25.6681067 24.6598764,23.5683637 L24.6666667,23.3333333 L24.6666633,9.47433333 L21.8047379,12.3348062 C21.5733161,12.566228 21.2140835,12.5919416 20.9542593,12.4119468 L20.8619288,12.3348062 C20.630507,12.1033844 20.6047935,11.7441519 20.7847882,11.4843277 L20.8619288,11.3919972 L24.7253305,7.52859548 C24.9567523,7.29717368 25.3159849,7.27146014 25.575809,7.45145488 L25.6681396,7.52859548 L29.5315413,11.3919972 C29.7918908,11.6523467 29.7918908,12.0744567 29.5315413,12.3348062 C29.3001195,12.566228 28.9408869,12.5919416 28.6810627,12.4119468 L28.5887322,12.3348062 L25.9996633,9.74733333 L26,23.3333333 C26,26.278852 23.6121853,28.6666667 20.6666667,28.6666667 C17.8104061,28.6666667 15.4785615,26.4213754 15.3398604,23.5995205 L15.3333333,23.3333333 L15.3333333,8.66666667 C15.3333333,6.45752767 13.5424723,4.66666667 11.3333333,4.66666667 C9.20309216,4.66666667 7.46178549,6.33189329 7.34012359,8.43163628 L7.33333333,8.66666667 L7.3326633,21.8283333 L10.1647288,18.9985271 C10.3961506,18.7671053 10.7553832,18.7413918 11.0152074,18.9213865 L11.1075379,18.9985271 C11.3389597,19.2299489 11.3646732,19.5891814 11.1846785,19.8490056 L11.1075379,19.9413362 L7.24413619,23.8047379 C7.10105692,23.9478171 6.9091223,24.0122649 6.72203081,23.9980811 L6.66666667,24 L6.66666667,24 C6.36927045,24 6.1173564,23.8052677 6.03147757,23.5363563 L2.43792544,19.9413362 C2.17757592,19.6809866 2.17757592,19.2588766 2.43792544,18.9985271 C2.66934725,18.7671053 3.02857978,18.7413918 3.28840397,18.9213865 L3.38073449,18.9985271 L5.9996633,21.6173333 L6,8.66666667 C6,5.721148 8.38781467,3.33333333 11.3333333,3.33333333 Z" id="Combined-Shape" fill="#FFFFFF" fill-rule="nonzero"></path>
                </g>
            </g>
        </g>
    </g>
</svg>